<svg width="1800" height="1100" viewBox="0 0 1800 1100" fill="none" xmlns="http://www.w3.org/2000/svg">
  <rect width="1800" height="1100" fill="#F4F5F3"/>
  <rect width="1800" height="1100" fill="url(#roomWash)"/>

  <g opacity="0.85">
    <rect x="460" y="0" width="18" height="1100" fill="#C8AE87"/>
    <rect x="498" y="0" width="18" height="1100" fill="#D8C2A0"/>
    <rect x="536" y="0" width="18" height="1100" fill="#C8AE87"/>
    <rect x="574" y="0" width="18" height="1100" fill="#D8C2A0"/>
    <rect x="612" y="0" width="18" height="1100" fill="#C8AE87"/>
    <rect x="650" y="0" width="18" height="1100" fill="#D8C2A0"/>
    <rect x="688" y="0" width="18" height="1100" fill="#C8AE87"/>
    <rect x="726" y="0" width="18" height="1100" fill="#D8C2A0"/>
    <rect x="764" y="0" width="18" height="1100" fill="#C8AE87"/>
    <rect x="802" y="0" width="18" height="1100" fill="#D8C2A0"/>
    <rect x="840" y="0" width="18" height="1100" fill="#C8AE87"/>
    <rect x="878" y="0" width="18" height="1100" fill="#D8C2A0"/>
    <rect x="916" y="0" width="18" height="1100" fill="#C8AE87"/>
    <rect x="954" y="0" width="18" height="1100" fill="#D8C2A0"/>
    <rect x="992" y="0" width="18" height="1100" fill="#C8AE87"/>
    <rect x="1030" y="0" width="18" height="1100" fill="#D8C2A0"/>
    <rect x="1068" y="0" width="18" height="1100" fill="#C8AE87"/>
    <rect x="1106" y="0" width="18" height="1100" fill="#D8C2A0"/>
    <rect x="1144" y="0" width="18" height="1100" fill="#C8AE87"/>
    <rect x="1182" y="0" width="18" height="1100" fill="#D8C2A0"/>
    <rect x="1220" y="0" width="18" height="1100" fill="#C8AE87"/>
    <rect x="1258" y="0" width="18" height="1100" fill="#D8C2A0"/>
    <rect x="1296" y="0" width="18" height="1100" fill="#C8AE87"/>
  </g>

  <g filter="url(#leftBlur)">
    <rect x="110" y="280" width="130" height="300" rx="12" fill="#B28C62"/>
    <rect x="126" y="212" width="92" height="90" rx="10" fill="#8F6B48"/>
    <rect x="138" y="332" width="74" height="18" rx="9" fill="#D8C7AD"/>
  </g>

  <g filter="url(#rightBlur)">
    <rect x="1530" y="180" width="170" height="250" rx="10" fill="#D6D1C8"/>
    <rect x="1562" y="212" width="106" height="186" rx="4" fill="#F4F1EC"/>
    <path d="M1605 255C1638 230 1654 272 1644 295C1638 311 1618 323 1602 340C1582 361 1595 380 1627 388" stroke="#BDB4A8" stroke-width="7" stroke-linecap="round"/>
  </g>

  <g filter="url(#tvShadow)">
    <rect x="480" y="286" width="840" height="477" rx="52" fill="#5D6672" fill-opacity="0.34"/>
    <rect x="504" y="310" width="792" height="429" rx="36" fill="#FAFBFD" fill-opacity="0.14" stroke="#1B2430" stroke-opacity="0.55" stroke-width="8"/>
    <rect x="544" y="350" width="712" height="24" rx="12" fill="#FFFFFF" fill-opacity="0.18"/>
    <path d="M664 408C736 470 784 548 782 642" stroke="#243242" stroke-opacity="0.12" stroke-width="6" stroke-linecap="round"/>
    <path d="M1096 398C1156 462 1190 536 1198 624" stroke="#243242" stroke-opacity="0.1" stroke-width="6" stroke-linecap="round"/>
    <ellipse cx="698" cy="504" rx="138" ry="192" fill="#AFCFEE" fill-opacity="0.12"/>
    <ellipse cx="1116" cy="506" rx="122" ry="156" fill="#FFE1B1" fill-opacity="0.08"/>
  </g>

  <rect x="734" y="786" width="332" height="16" rx="8" fill="#2A3542" fill-opacity="0.6"/>
  <rect x="798" y="738" width="204" height="36" rx="18" fill="#313C49" fill-opacity="0.54"/>
  <rect x="560" y="850" width="680" height="30" rx="15" fill="url(#shelf)"/>
  <ellipse cx="900" cy="894" rx="400" ry="32" fill="#737F8D" fill-opacity="0.2"/>

  <rect x="0" y="0" width="1800" height="450" fill="url(#topLight)"/>
  <rect x="0" y="0" width="1800" height="1100" fill="url(#edgeVignette)"/>
  <rect x="0" y="0" width="1800" height="1100" fill="url(#grain)" opacity="0.2"/>

  <defs>
    <linearGradient id="roomWash" x1="0" y1="0" x2="1800" y2="1100" gradientUnits="userSpaceOnUse">
      <stop stop-color="#E9EEF5"/>
      <stop offset="0.18" stop-color="#F7F7F3"/>
      <stop offset="0.56" stop-color="#F2EBDD"/>
      <stop offset="1" stop-color="#E5DFD4"/>
    </linearGradient>
    <linearGradient id="shelf" x1="560" y1="850" x2="1240" y2="850" gradientUnits="userSpaceOnUse">
      <stop stop-color="#E0C59E"/>
      <stop offset="0.5" stop-color="#C89F69"/>
      <stop offset="1" stop-color="#E5CBA4"/>
    </linearGradient>
    <linearGradient id="topLight" x1="900" y1="0" x2="900" y2="450" gradientUnits="userSpaceOnUse">
      <stop stop-color="#FFFFFF" stop-opacity="0.38"/>
      <stop offset="1" stop-color="#FFFFFF" stop-opacity="0"/>
    </linearGradient>
    <radialGradient id="edgeVignette" cx="0" cy="0" r="1" gradientUnits="userSpaceOnUse" gradientTransform="translate(900 470) rotate(90) scale(700 1120)">
      <stop offset="0.58" stop-color="#000000" stop-opacity="0"/>
      <stop offset="1" stop-color="#000000" stop-opacity="0.22"/>
    </radialGradient>
    <pattern id="grain" patternContentUnits="objectBoundingBox" width="1" height="1">
      <use href="#grainImage" transform="scale(0.000555556 0.000909091)"/>
    </pattern>
    <filter id="leftBlur" x="64" y="166" width="222" height="460" filterUnits="userSpaceOnUse" color-interpolation-filters="sRGB">
      <feFlood flood-opacity="0" result="BackgroundImageFix"/>
      <feBlend mode="normal" in="SourceGraphic" in2="BackgroundImageFix" result="shape"/>
      <feGaussianBlur stdDeviation="14" result="effect1_foregroundBlur_0_1"/>
    </filter>
    <filter id="rightBlur" x="1484" y="134" width="262" height="342" filterUnits="userSpaceOnUse" color-interpolation-filters="sRGB">
      <feFlood flood-opacity="0" result="BackgroundImageFix"/>
      <feBlend mode="normal" in="SourceGraphic" in2="BackgroundImageFix" result="shape"/>
      <feGaussianBlur stdDeviation="14" result="effect1_foregroundBlur_0_1"/>
    </filter>
    <filter id="tvShadow" x="412" y="230" width="976" height="589" filterUnits="userSpaceOnUse" color-interpolation-filters="sRGB">
      <feFlood flood-opacity="0" result="BackgroundImageFix"/>
      <feColorMatrix in="SourceAlpha" type="matrix" values="0 0 0 0 0 0 0 0 0 0 0 0 0 0 0 0 0 0 127 0" result="hardAlpha"/>
      <feOffset dy="10"/>
      <feGaussianBlur stdDeviation="24"/>
      <feColorMatrix type="matrix" values="0 0 0 0 0.0980392 0 0 0 0 0.117647 0 0 0 0 0.152941 0 0 0 0.14 0"/>
      <feBlend mode="normal" in2="BackgroundImageFix" result="effect1_dropShadow_0_1"/>
      <feBlend mode="normal" in="SourceGraphic" in2="effect1_dropShadow_0_1" result="shape"/>
    </filter>
    <image id="grainImage" width="1800" height="1100" preserveAspectRatio="none" href="data:image/svg+xml,%3Csvg xmlns='http://www.w3.org/2000/svg' width='1800' height='1100'%3E%3Cfilter id='n'%3E%3CfeTurbulence type='fractalNoise' baseFrequency='1.2' numOctaves='2' stitchTiles='stitch'/%3E%3C/filter%3E%3Crect width='1800' height='1100' filter='url(%23n)' opacity='0.12'/%3E%3C/svg%3E"/>
  </defs>
</svg>
